%TF.GenerationSoftware,KiCad,Pcbnew,5.1.7-a382d34a8~87~ubuntu18.04.1*%
%TF.CreationDate,2020-10-28T08:11:05+01:00*%
%TF.ProjectId,CH552_devkit,43483535-325f-4646-9576-6b69742e6b69,rev?*%
%TF.SameCoordinates,Original*%
%TF.FileFunction,Soldermask,Bot*%
%TF.FilePolarity,Negative*%
%FSLAX46Y46*%
G04 Gerber Fmt 4.6, Leading zero omitted, Abs format (unit mm)*
G04 Created by KiCad (PCBNEW 5.1.7-a382d34a8~87~ubuntu18.04.1) date 2020-10-28 08:11:05*
%MOMM*%
%LPD*%
G01*
G04 APERTURE LIST*
%ADD10O,1.800000X1.800000*%
%ADD11C,1.800000*%
%ADD12O,2.000000X1.300000*%
%ADD13C,1.550000*%
G04 APERTURE END LIST*
%TO.C,R8*%
G36*
G01*
X95074050Y-88397000D02*
X94511550Y-88397000D01*
G75*
G02*
X94267800Y-88153250I0J243750D01*
G01*
X94267800Y-87665750D01*
G75*
G02*
X94511550Y-87422000I243750J0D01*
G01*
X95074050Y-87422000D01*
G75*
G02*
X95317800Y-87665750I0J-243750D01*
G01*
X95317800Y-88153250D01*
G75*
G02*
X95074050Y-88397000I-243750J0D01*
G01*
G37*
G36*
G01*
X95074050Y-86822000D02*
X94511550Y-86822000D01*
G75*
G02*
X94267800Y-86578250I0J243750D01*
G01*
X94267800Y-86090750D01*
G75*
G02*
X94511550Y-85847000I243750J0D01*
G01*
X95074050Y-85847000D01*
G75*
G02*
X95317800Y-86090750I0J-243750D01*
G01*
X95317800Y-86578250D01*
G75*
G02*
X95074050Y-86822000I-243750J0D01*
G01*
G37*
%TD*%
%TO.C,R6*%
G36*
G01*
X77275000Y-85020850D02*
X77275000Y-84458350D01*
G75*
G02*
X77518750Y-84214600I243750J0D01*
G01*
X78006250Y-84214600D01*
G75*
G02*
X78250000Y-84458350I0J-243750D01*
G01*
X78250000Y-85020850D01*
G75*
G02*
X78006250Y-85264600I-243750J0D01*
G01*
X77518750Y-85264600D01*
G75*
G02*
X77275000Y-85020850I0J243750D01*
G01*
G37*
G36*
G01*
X78850000Y-85020850D02*
X78850000Y-84458350D01*
G75*
G02*
X79093750Y-84214600I243750J0D01*
G01*
X79581250Y-84214600D01*
G75*
G02*
X79825000Y-84458350I0J-243750D01*
G01*
X79825000Y-85020850D01*
G75*
G02*
X79581250Y-85264600I-243750J0D01*
G01*
X79093750Y-85264600D01*
G75*
G02*
X78850000Y-85020850I0J243750D01*
G01*
G37*
%TD*%
%TO.C,R5*%
G36*
G01*
X81118750Y-85902101D02*
X81681250Y-85902101D01*
G75*
G02*
X81925000Y-86145851I0J-243750D01*
G01*
X81925000Y-86633351D01*
G75*
G02*
X81681250Y-86877101I-243750J0D01*
G01*
X81118750Y-86877101D01*
G75*
G02*
X80875000Y-86633351I0J243750D01*
G01*
X80875000Y-86145851D01*
G75*
G02*
X81118750Y-85902101I243750J0D01*
G01*
G37*
G36*
G01*
X81118750Y-87477101D02*
X81681250Y-87477101D01*
G75*
G02*
X81925000Y-87720851I0J-243750D01*
G01*
X81925000Y-88208351D01*
G75*
G02*
X81681250Y-88452101I-243750J0D01*
G01*
X81118750Y-88452101D01*
G75*
G02*
X80875000Y-88208351I0J243750D01*
G01*
X80875000Y-87720851D01*
G75*
G02*
X81118750Y-87477101I243750J0D01*
G01*
G37*
%TD*%
%TO.C,R4*%
G36*
G01*
X82718750Y-85914600D02*
X83281250Y-85914600D01*
G75*
G02*
X83525000Y-86158350I0J-243750D01*
G01*
X83525000Y-86645850D01*
G75*
G02*
X83281250Y-86889600I-243750J0D01*
G01*
X82718750Y-86889600D01*
G75*
G02*
X82475000Y-86645850I0J243750D01*
G01*
X82475000Y-86158350D01*
G75*
G02*
X82718750Y-85914600I243750J0D01*
G01*
G37*
G36*
G01*
X82718750Y-87489600D02*
X83281250Y-87489600D01*
G75*
G02*
X83525000Y-87733350I0J-243750D01*
G01*
X83525000Y-88220850D01*
G75*
G02*
X83281250Y-88464600I-243750J0D01*
G01*
X82718750Y-88464600D01*
G75*
G02*
X82475000Y-88220850I0J243750D01*
G01*
X82475000Y-87733350D01*
G75*
G02*
X82718750Y-87489600I243750J0D01*
G01*
G37*
%TD*%
%TO.C,R3*%
G36*
G01*
X82875000Y-80758350D02*
X82875000Y-81320850D01*
G75*
G02*
X82631250Y-81564600I-243750J0D01*
G01*
X82143750Y-81564600D01*
G75*
G02*
X81900000Y-81320850I0J243750D01*
G01*
X81900000Y-80758350D01*
G75*
G02*
X82143750Y-80514600I243750J0D01*
G01*
X82631250Y-80514600D01*
G75*
G02*
X82875000Y-80758350I0J-243750D01*
G01*
G37*
G36*
G01*
X81300000Y-80758350D02*
X81300000Y-81320850D01*
G75*
G02*
X81056250Y-81564600I-243750J0D01*
G01*
X80568750Y-81564600D01*
G75*
G02*
X80325000Y-81320850I0J243750D01*
G01*
X80325000Y-80758350D01*
G75*
G02*
X80568750Y-80514600I243750J0D01*
G01*
X81056250Y-80514600D01*
G75*
G02*
X81300000Y-80758350I0J-243750D01*
G01*
G37*
%TD*%
%TO.C,R1*%
G36*
G01*
X90447550Y-85847000D02*
X91010050Y-85847000D01*
G75*
G02*
X91253800Y-86090750I0J-243750D01*
G01*
X91253800Y-86578250D01*
G75*
G02*
X91010050Y-86822000I-243750J0D01*
G01*
X90447550Y-86822000D01*
G75*
G02*
X90203800Y-86578250I0J243750D01*
G01*
X90203800Y-86090750D01*
G75*
G02*
X90447550Y-85847000I243750J0D01*
G01*
G37*
G36*
G01*
X90447550Y-87422000D02*
X91010050Y-87422000D01*
G75*
G02*
X91253800Y-87665750I0J-243750D01*
G01*
X91253800Y-88153250D01*
G75*
G02*
X91010050Y-88397000I-243750J0D01*
G01*
X90447550Y-88397000D01*
G75*
G02*
X90203800Y-88153250I0J243750D01*
G01*
X90203800Y-87665750D01*
G75*
G02*
X90447550Y-87422000I243750J0D01*
G01*
G37*
%TD*%
D10*
%TO.C,J2*%
X95280000Y-91000000D03*
X92740000Y-91000000D03*
X90200000Y-91000000D03*
X87660000Y-91000000D03*
X85120000Y-91000000D03*
X82580000Y-91000000D03*
X80040000Y-91000000D03*
D11*
X77500000Y-91000000D03*
%TD*%
D10*
%TO.C,J1*%
X77500000Y-78300000D03*
X80040000Y-78300000D03*
X82580000Y-78300000D03*
X85120000Y-78300000D03*
X87660000Y-78300000D03*
X90200000Y-78300000D03*
X92740000Y-78300000D03*
D11*
X95280000Y-78300000D03*
%TD*%
%TO.C,Q2*%
G36*
G01*
X80239200Y-86251800D02*
X80239200Y-86701800D01*
G75*
G02*
X80014200Y-86926800I-225000J0D01*
G01*
X79364200Y-86926800D01*
G75*
G02*
X79139200Y-86701800I0J225000D01*
G01*
X79139200Y-86251800D01*
G75*
G02*
X79364200Y-86026800I225000J0D01*
G01*
X80014200Y-86026800D01*
G75*
G02*
X80239200Y-86251800I0J-225000D01*
G01*
G37*
G36*
G01*
X80239200Y-88151800D02*
X80239200Y-88601800D01*
G75*
G02*
X80014200Y-88826800I-225000J0D01*
G01*
X79364200Y-88826800D01*
G75*
G02*
X79139200Y-88601800I0J225000D01*
G01*
X79139200Y-88151800D01*
G75*
G02*
X79364200Y-87926800I225000J0D01*
G01*
X80014200Y-87926800D01*
G75*
G02*
X80239200Y-88151800I0J-225000D01*
G01*
G37*
G36*
G01*
X78239200Y-87201800D02*
X78239200Y-87651800D01*
G75*
G02*
X78014200Y-87876800I-225000J0D01*
G01*
X77364200Y-87876800D01*
G75*
G02*
X77139200Y-87651800I0J225000D01*
G01*
X77139200Y-87201800D01*
G75*
G02*
X77364200Y-86976800I225000J0D01*
G01*
X78014200Y-86976800D01*
G75*
G02*
X78239200Y-87201800I0J-225000D01*
G01*
G37*
%TD*%
%TO.C,F1*%
G36*
G01*
X72045000Y-85314600D02*
X73355000Y-85314600D01*
G75*
G02*
X73625000Y-85584600I0J-270000D01*
G01*
X73625000Y-86394600D01*
G75*
G02*
X73355000Y-86664600I-270000J0D01*
G01*
X72045000Y-86664600D01*
G75*
G02*
X71775000Y-86394600I0J270000D01*
G01*
X71775000Y-85584600D01*
G75*
G02*
X72045000Y-85314600I270000J0D01*
G01*
G37*
G36*
G01*
X72045000Y-82514600D02*
X73355000Y-82514600D01*
G75*
G02*
X73625000Y-82784600I0J-270000D01*
G01*
X73625000Y-83594600D01*
G75*
G02*
X73355000Y-83864600I-270000J0D01*
G01*
X72045000Y-83864600D01*
G75*
G02*
X71775000Y-83594600I0J270000D01*
G01*
X71775000Y-82784600D01*
G75*
G02*
X72045000Y-82514600I270000J0D01*
G01*
G37*
%TD*%
%TO.C,Q1*%
G36*
G01*
X79800000Y-80550000D02*
X79800000Y-81250000D01*
G75*
G02*
X79600000Y-81450000I-200000J0D01*
G01*
X79200000Y-81450000D01*
G75*
G02*
X79000000Y-81250000I0J200000D01*
G01*
X79000000Y-80550000D01*
G75*
G02*
X79200000Y-80350000I200000J0D01*
G01*
X79600000Y-80350000D01*
G75*
G02*
X79800000Y-80550000I0J-200000D01*
G01*
G37*
G36*
G01*
X78850000Y-80550000D02*
X78850000Y-81250000D01*
G75*
G02*
X78650000Y-81450000I-200000J0D01*
G01*
X78250000Y-81450000D01*
G75*
G02*
X78050000Y-81250000I0J200000D01*
G01*
X78050000Y-80550000D01*
G75*
G02*
X78250000Y-80350000I200000J0D01*
G01*
X78650000Y-80350000D01*
G75*
G02*
X78850000Y-80550000I0J-200000D01*
G01*
G37*
G36*
G01*
X77900000Y-80550000D02*
X77900000Y-81250000D01*
G75*
G02*
X77700000Y-81450000I-200000J0D01*
G01*
X77300000Y-81450000D01*
G75*
G02*
X77100000Y-81250000I0J200000D01*
G01*
X77100000Y-80550000D01*
G75*
G02*
X77300000Y-80350000I200000J0D01*
G01*
X77700000Y-80350000D01*
G75*
G02*
X77900000Y-80550000I0J-200000D01*
G01*
G37*
G36*
G01*
X77900000Y-82750000D02*
X77900000Y-83450000D01*
G75*
G02*
X77700000Y-83650000I-200000J0D01*
G01*
X77300000Y-83650000D01*
G75*
G02*
X77100000Y-83450000I0J200000D01*
G01*
X77100000Y-82750000D01*
G75*
G02*
X77300000Y-82550000I200000J0D01*
G01*
X77700000Y-82550000D01*
G75*
G02*
X77900000Y-82750000I0J-200000D01*
G01*
G37*
G36*
G01*
X78850000Y-82750000D02*
X78850000Y-83450000D01*
G75*
G02*
X78650000Y-83650000I-200000J0D01*
G01*
X78250000Y-83650000D01*
G75*
G02*
X78050000Y-83450000I0J200000D01*
G01*
X78050000Y-82750000D01*
G75*
G02*
X78250000Y-82550000I200000J0D01*
G01*
X78650000Y-82550000D01*
G75*
G02*
X78850000Y-82750000I0J-200000D01*
G01*
G37*
G36*
G01*
X79800000Y-82750000D02*
X79800000Y-83450000D01*
G75*
G02*
X79600000Y-83650000I-200000J0D01*
G01*
X79200000Y-83650000D01*
G75*
G02*
X79000000Y-83450000I0J200000D01*
G01*
X79000000Y-82750000D01*
G75*
G02*
X79200000Y-82550000I200000J0D01*
G01*
X79600000Y-82550000D01*
G75*
G02*
X79800000Y-82750000I0J-200000D01*
G01*
G37*
%TD*%
D12*
%TO.C,J3*%
X72300000Y-87989600D03*
X72300000Y-80989600D03*
D13*
X75000000Y-86989600D03*
X75000000Y-81989600D03*
%TD*%
%TO.C,D2*%
G36*
G01*
X85000000Y-81489600D02*
X83800000Y-81489600D01*
G75*
G02*
X83750000Y-81439600I0J50000D01*
G01*
X83750000Y-80539600D01*
G75*
G02*
X83800000Y-80489600I50000J0D01*
G01*
X85000000Y-80489600D01*
G75*
G02*
X85050000Y-80539600I0J-50000D01*
G01*
X85050000Y-81439600D01*
G75*
G02*
X85000000Y-81489600I-50000J0D01*
G01*
G37*
G36*
G01*
X85000000Y-84789600D02*
X83800000Y-84789600D01*
G75*
G02*
X83750000Y-84739600I0J50000D01*
G01*
X83750000Y-83839600D01*
G75*
G02*
X83800000Y-83789600I50000J0D01*
G01*
X85000000Y-83789600D01*
G75*
G02*
X85050000Y-83839600I0J-50000D01*
G01*
X85050000Y-84739600D01*
G75*
G02*
X85000000Y-84789600I-50000J0D01*
G01*
G37*
%TD*%
%TO.C,C5*%
G36*
G01*
X75537500Y-89608350D02*
X75537500Y-90570850D01*
G75*
G02*
X75268750Y-90839600I-268750J0D01*
G01*
X74731250Y-90839600D01*
G75*
G02*
X74462500Y-90570850I0J268750D01*
G01*
X74462500Y-89608350D01*
G75*
G02*
X74731250Y-89339600I268750J0D01*
G01*
X75268750Y-89339600D01*
G75*
G02*
X75537500Y-89608350I0J-268750D01*
G01*
G37*
G36*
G01*
X73662500Y-89608350D02*
X73662500Y-90570850D01*
G75*
G02*
X73393750Y-90839600I-268750J0D01*
G01*
X72856250Y-90839600D01*
G75*
G02*
X72587500Y-90570850I0J268750D01*
G01*
X72587500Y-89608350D01*
G75*
G02*
X72856250Y-89339600I268750J0D01*
G01*
X73393750Y-89339600D01*
G75*
G02*
X73662500Y-89608350I0J-268750D01*
G01*
G37*
%TD*%
%TO.C,C3*%
G36*
G01*
X80718750Y-82314600D02*
X81681250Y-82314600D01*
G75*
G02*
X81950000Y-82583350I0J-268750D01*
G01*
X81950000Y-83120850D01*
G75*
G02*
X81681250Y-83389600I-268750J0D01*
G01*
X80718750Y-83389600D01*
G75*
G02*
X80450000Y-83120850I0J268750D01*
G01*
X80450000Y-82583350D01*
G75*
G02*
X80718750Y-82314600I268750J0D01*
G01*
G37*
G36*
G01*
X80718750Y-84189600D02*
X81681250Y-84189600D01*
G75*
G02*
X81950000Y-84458350I0J-268750D01*
G01*
X81950000Y-84995850D01*
G75*
G02*
X81681250Y-85264600I-268750J0D01*
G01*
X80718750Y-85264600D01*
G75*
G02*
X80450000Y-84995850I0J268750D01*
G01*
X80450000Y-84458350D01*
G75*
G02*
X80718750Y-84189600I268750J0D01*
G01*
G37*
%TD*%
%TO.C,C2*%
G36*
G01*
X87047150Y-85697800D02*
X88009650Y-85697800D01*
G75*
G02*
X88278400Y-85966550I0J-268750D01*
G01*
X88278400Y-86504050D01*
G75*
G02*
X88009650Y-86772800I-268750J0D01*
G01*
X87047150Y-86772800D01*
G75*
G02*
X86778400Y-86504050I0J268750D01*
G01*
X86778400Y-85966550D01*
G75*
G02*
X87047150Y-85697800I268750J0D01*
G01*
G37*
G36*
G01*
X87047150Y-87572800D02*
X88009650Y-87572800D01*
G75*
G02*
X88278400Y-87841550I0J-268750D01*
G01*
X88278400Y-88379050D01*
G75*
G02*
X88009650Y-88647800I-268750J0D01*
G01*
X87047150Y-88647800D01*
G75*
G02*
X86778400Y-88379050I0J268750D01*
G01*
X86778400Y-87841550D01*
G75*
G02*
X87047150Y-87572800I268750J0D01*
G01*
G37*
%TD*%
%TO.C,C1*%
G36*
G01*
X84456350Y-85697800D02*
X85418850Y-85697800D01*
G75*
G02*
X85687600Y-85966550I0J-268750D01*
G01*
X85687600Y-86504050D01*
G75*
G02*
X85418850Y-86772800I-268750J0D01*
G01*
X84456350Y-86772800D01*
G75*
G02*
X84187600Y-86504050I0J268750D01*
G01*
X84187600Y-85966550D01*
G75*
G02*
X84456350Y-85697800I268750J0D01*
G01*
G37*
G36*
G01*
X84456350Y-87572800D02*
X85418850Y-87572800D01*
G75*
G02*
X85687600Y-87841550I0J-268750D01*
G01*
X85687600Y-88379050D01*
G75*
G02*
X85418850Y-88647800I-268750J0D01*
G01*
X84456350Y-88647800D01*
G75*
G02*
X84187600Y-88379050I0J268750D01*
G01*
X84187600Y-87841550D01*
G75*
G02*
X84456350Y-87572800I268750J0D01*
G01*
G37*
%TD*%
M02*
