%TF.GenerationSoftware,KiCad,Pcbnew,5.1.7-a382d34a8~87~ubuntu18.04.1*%
%TF.CreationDate,2020-10-28T08:11:05+01:00*%
%TF.ProjectId,CH552_devkit,43483535-325f-4646-9576-6b69742e6b69,rev?*%
%TF.SameCoordinates,Original*%
%TF.FileFunction,Legend,Bot*%
%TF.FilePolarity,Positive*%
%FSLAX46Y46*%
G04 Gerber Fmt 4.6, Leading zero omitted, Abs format (unit mm)*
G04 Created by KiCad (PCBNEW 5.1.7-a382d34a8~87~ubuntu18.04.1) date 2020-10-28 08:11:05*
%MOMM*%
%LPD*%
G01*
G04 APERTURE LIST*
%ADD10C,0.150000*%
%ADD11C,0.120000*%
%ADD12C,0.300000*%
%ADD13C,0.200000*%
G04 APERTURE END LIST*
D10*
X75212023Y-79011904D02*
X75212023Y-78478571D01*
X75212023Y-78630952D02*
X75173928Y-78554761D01*
X75135833Y-78516666D01*
X75059642Y-78478571D01*
X74983452Y-78478571D01*
X74412023Y-78973809D02*
X74488214Y-79011904D01*
X74640595Y-79011904D01*
X74716785Y-78973809D01*
X74754880Y-78897619D01*
X74754880Y-78592857D01*
X74716785Y-78516666D01*
X74640595Y-78478571D01*
X74488214Y-78478571D01*
X74412023Y-78516666D01*
X74373928Y-78592857D01*
X74373928Y-78669047D01*
X74754880Y-78745238D01*
X74107261Y-78478571D02*
X73916785Y-79011904D01*
X73726309Y-78478571D01*
X73421547Y-78935714D02*
X73383452Y-78973809D01*
X73421547Y-79011904D01*
X73459642Y-78973809D01*
X73421547Y-78935714D01*
X73421547Y-79011904D01*
X71973928Y-78935714D02*
X72012023Y-78973809D01*
X72126309Y-79011904D01*
X72202500Y-79011904D01*
X72316785Y-78973809D01*
X72392976Y-78897619D01*
X72431071Y-78821428D01*
X72469166Y-78669047D01*
X72469166Y-78554761D01*
X72431071Y-78402380D01*
X72392976Y-78326190D01*
X72316785Y-78250000D01*
X72202500Y-78211904D01*
X72126309Y-78211904D01*
X72012023Y-78250000D01*
X71973928Y-78288095D01*
X97754880Y-81185714D02*
X97792976Y-81223809D01*
X97907261Y-81261904D01*
X97983452Y-81261904D01*
X98097738Y-81223809D01*
X98173928Y-81147619D01*
X98212023Y-81071428D01*
X98250119Y-80919047D01*
X98250119Y-80804761D01*
X98212023Y-80652380D01*
X98173928Y-80576190D01*
X98097738Y-80500000D01*
X97983452Y-80461904D01*
X97907261Y-80461904D01*
X97792976Y-80500000D01*
X97754880Y-80538095D01*
X97412023Y-81261904D02*
X97412023Y-80461904D01*
X97412023Y-80842857D02*
X96954880Y-80842857D01*
X96954880Y-81261904D02*
X96954880Y-80461904D01*
X96192976Y-80461904D02*
X96573928Y-80461904D01*
X96612023Y-80842857D01*
X96573928Y-80804761D01*
X96497738Y-80766666D01*
X96307261Y-80766666D01*
X96231071Y-80804761D01*
X96192976Y-80842857D01*
X96154880Y-80919047D01*
X96154880Y-81109523D01*
X96192976Y-81185714D01*
X96231071Y-81223809D01*
X96307261Y-81261904D01*
X96497738Y-81261904D01*
X96573928Y-81223809D01*
X96612023Y-81185714D01*
X95431071Y-80461904D02*
X95812023Y-80461904D01*
X95850119Y-80842857D01*
X95812023Y-80804761D01*
X95735833Y-80766666D01*
X95545357Y-80766666D01*
X95469166Y-80804761D01*
X95431071Y-80842857D01*
X95392976Y-80919047D01*
X95392976Y-81109523D01*
X95431071Y-81185714D01*
X95469166Y-81223809D01*
X95545357Y-81261904D01*
X95735833Y-81261904D01*
X95812023Y-81223809D01*
X95850119Y-81185714D01*
X95088214Y-80538095D02*
X95050119Y-80500000D01*
X94973928Y-80461904D01*
X94783452Y-80461904D01*
X94707261Y-80500000D01*
X94669166Y-80538095D01*
X94631071Y-80614285D01*
X94631071Y-80690476D01*
X94669166Y-80804761D01*
X95126309Y-81261904D01*
X94631071Y-81261904D01*
X93335833Y-81261904D02*
X93335833Y-80461904D01*
X93335833Y-81223809D02*
X93412023Y-81261904D01*
X93564404Y-81261904D01*
X93640595Y-81223809D01*
X93678690Y-81185714D01*
X93716785Y-81109523D01*
X93716785Y-80880952D01*
X93678690Y-80804761D01*
X93640595Y-80766666D01*
X93564404Y-80728571D01*
X93412023Y-80728571D01*
X93335833Y-80766666D01*
X92650119Y-81223809D02*
X92726309Y-81261904D01*
X92878690Y-81261904D01*
X92954880Y-81223809D01*
X92992976Y-81147619D01*
X92992976Y-80842857D01*
X92954880Y-80766666D01*
X92878690Y-80728571D01*
X92726309Y-80728571D01*
X92650119Y-80766666D01*
X92612023Y-80842857D01*
X92612023Y-80919047D01*
X92992976Y-80995238D01*
X92345357Y-80728571D02*
X92154880Y-81261904D01*
X91964404Y-80728571D01*
X91088214Y-81223809D02*
X91012023Y-81261904D01*
X90859642Y-81261904D01*
X90783452Y-81223809D01*
X90745357Y-81147619D01*
X90745357Y-81109523D01*
X90783452Y-81033333D01*
X90859642Y-80995238D01*
X90973928Y-80995238D01*
X91050119Y-80957142D01*
X91088214Y-80880952D01*
X91088214Y-80842857D01*
X91050119Y-80766666D01*
X90973928Y-80728571D01*
X90859642Y-80728571D01*
X90783452Y-80766666D01*
X90516785Y-80728571D02*
X90212023Y-80728571D01*
X90402500Y-80461904D02*
X90402500Y-81147619D01*
X90364404Y-81223809D01*
X90288214Y-81261904D01*
X90212023Y-81261904D01*
X89945357Y-81261904D02*
X89945357Y-80728571D01*
X89945357Y-80461904D02*
X89983452Y-80500000D01*
X89945357Y-80538095D01*
X89907261Y-80500000D01*
X89945357Y-80461904D01*
X89945357Y-80538095D01*
X89221547Y-81223809D02*
X89297738Y-81261904D01*
X89450119Y-81261904D01*
X89526309Y-81223809D01*
X89564404Y-81185714D01*
X89602500Y-81109523D01*
X89602500Y-80880952D01*
X89564404Y-80804761D01*
X89526309Y-80766666D01*
X89450119Y-80728571D01*
X89297738Y-80728571D01*
X89221547Y-80766666D01*
X88878690Y-81261904D02*
X88878690Y-80461904D01*
X88802500Y-80957142D02*
X88573928Y-81261904D01*
X88573928Y-80728571D02*
X88878690Y-81033333D01*
X97983452Y-82916666D02*
X98021547Y-82878571D01*
X98097738Y-82764285D01*
X98135833Y-82688095D01*
X98173928Y-82573809D01*
X98212023Y-82383333D01*
X98212023Y-82230952D01*
X98173928Y-82040476D01*
X98135833Y-81926190D01*
X98097738Y-81850000D01*
X98021547Y-81735714D01*
X97983452Y-81697619D01*
X97335833Y-82573809D02*
X97412023Y-82611904D01*
X97564404Y-82611904D01*
X97640595Y-82573809D01*
X97678690Y-82535714D01*
X97716785Y-82459523D01*
X97716785Y-82230952D01*
X97678690Y-82154761D01*
X97640595Y-82116666D01*
X97564404Y-82078571D01*
X97412023Y-82078571D01*
X97335833Y-82116666D01*
X97069166Y-82916666D02*
X97031071Y-82878571D01*
X96954880Y-82764285D01*
X96916785Y-82688095D01*
X96878690Y-82573809D01*
X96840595Y-82383333D01*
X96840595Y-82230952D01*
X96878690Y-82040476D01*
X96916785Y-81926190D01*
X96954880Y-81850000D01*
X97031071Y-81735714D01*
X97069166Y-81697619D01*
X95431071Y-82611904D02*
X95888214Y-82611904D01*
X95659642Y-82611904D02*
X95659642Y-81811904D01*
X95735833Y-81926190D01*
X95812023Y-82002380D01*
X95888214Y-82040476D01*
X94935833Y-81811904D02*
X94859642Y-81811904D01*
X94783452Y-81850000D01*
X94745357Y-81888095D01*
X94707261Y-81964285D01*
X94669166Y-82116666D01*
X94669166Y-82307142D01*
X94707261Y-82459523D01*
X94745357Y-82535714D01*
X94783452Y-82573809D01*
X94859642Y-82611904D01*
X94935833Y-82611904D01*
X95012023Y-82573809D01*
X95050119Y-82535714D01*
X95088214Y-82459523D01*
X95126309Y-82307142D01*
X95126309Y-82116666D01*
X95088214Y-81964285D01*
X95050119Y-81888095D01*
X95012023Y-81850000D01*
X94935833Y-81811904D01*
X94326309Y-82535714D02*
X94288214Y-82573809D01*
X94326309Y-82611904D01*
X94364404Y-82573809D01*
X94326309Y-82535714D01*
X94326309Y-82611904D01*
X93983452Y-81888095D02*
X93945357Y-81850000D01*
X93869166Y-81811904D01*
X93678690Y-81811904D01*
X93602500Y-81850000D01*
X93564404Y-81888095D01*
X93526309Y-81964285D01*
X93526309Y-82040476D01*
X93564404Y-82154761D01*
X94021547Y-82611904D01*
X93526309Y-82611904D01*
X93031071Y-81811904D02*
X92954880Y-81811904D01*
X92878690Y-81850000D01*
X92840595Y-81888095D01*
X92802499Y-81964285D01*
X92764404Y-82116666D01*
X92764404Y-82307142D01*
X92802499Y-82459523D01*
X92840595Y-82535714D01*
X92878690Y-82573809D01*
X92954880Y-82611904D01*
X93031071Y-82611904D01*
X93107261Y-82573809D01*
X93145357Y-82535714D01*
X93183452Y-82459523D01*
X93221547Y-82307142D01*
X93221547Y-82116666D01*
X93183452Y-81964285D01*
X93145357Y-81888095D01*
X93107261Y-81850000D01*
X93031071Y-81811904D01*
X92459642Y-81888095D02*
X92421547Y-81850000D01*
X92345357Y-81811904D01*
X92154880Y-81811904D01*
X92078690Y-81850000D01*
X92040595Y-81888095D01*
X92002499Y-81964285D01*
X92002499Y-82040476D01*
X92040595Y-82154761D01*
X92497738Y-82611904D01*
X92002499Y-82611904D01*
X91507261Y-81811904D02*
X91431071Y-81811904D01*
X91354880Y-81850000D01*
X91316785Y-81888095D01*
X91278690Y-81964285D01*
X91240595Y-82116666D01*
X91240595Y-82307142D01*
X91278690Y-82459523D01*
X91316785Y-82535714D01*
X91354880Y-82573809D01*
X91431071Y-82611904D01*
X91507261Y-82611904D01*
X91583452Y-82573809D01*
X91621547Y-82535714D01*
X91659642Y-82459523D01*
X91697738Y-82307142D01*
X91697738Y-82116666D01*
X91659642Y-81964285D01*
X91621547Y-81888095D01*
X91583452Y-81850000D01*
X91507261Y-81811904D01*
X90288214Y-82611904D02*
X90288214Y-81811904D01*
X90288214Y-82116666D02*
X90212023Y-82078571D01*
X90059642Y-82078571D01*
X89983452Y-82116666D01*
X89945357Y-82154761D01*
X89907261Y-82230952D01*
X89907261Y-82459523D01*
X89945357Y-82535714D01*
X89983452Y-82573809D01*
X90059642Y-82611904D01*
X90212023Y-82611904D01*
X90288214Y-82573809D01*
X89640595Y-82078571D02*
X89450119Y-82611904D01*
X89259642Y-82078571D02*
X89450119Y-82611904D01*
X89526309Y-82802380D01*
X89564404Y-82840476D01*
X89640595Y-82878571D01*
X98212023Y-83961904D02*
X98212023Y-83161904D01*
X97907261Y-83161904D01*
X97831071Y-83200000D01*
X97792976Y-83238095D01*
X97754880Y-83314285D01*
X97754880Y-83428571D01*
X97792976Y-83504761D01*
X97831071Y-83542857D01*
X97907261Y-83580952D01*
X98212023Y-83580952D01*
X97412023Y-83961904D02*
X97412023Y-83428571D01*
X97412023Y-83161904D02*
X97450119Y-83200000D01*
X97412023Y-83238095D01*
X97373928Y-83200000D01*
X97412023Y-83161904D01*
X97412023Y-83238095D01*
X96916785Y-83961904D02*
X96992976Y-83923809D01*
X97031071Y-83885714D01*
X97069166Y-83809523D01*
X97069166Y-83580952D01*
X97031071Y-83504761D01*
X96992976Y-83466666D01*
X96916785Y-83428571D01*
X96802500Y-83428571D01*
X96726309Y-83466666D01*
X96688214Y-83504761D01*
X96650119Y-83580952D01*
X96650119Y-83809523D01*
X96688214Y-83885714D01*
X96726309Y-83923809D01*
X96802500Y-83961904D01*
X96916785Y-83961904D01*
X96421547Y-83428571D02*
X96116785Y-83428571D01*
X96307261Y-83161904D02*
X96307261Y-83847619D01*
X96269166Y-83923809D01*
X96192976Y-83961904D01*
X96116785Y-83961904D01*
X95850119Y-83961904D02*
X95850119Y-83428571D01*
X95850119Y-83580952D02*
X95812023Y-83504761D01*
X95773928Y-83466666D01*
X95697738Y-83428571D01*
X95621547Y-83428571D01*
X94821547Y-83161904D02*
X94288214Y-83161904D01*
X94821547Y-83961904D01*
X94288214Y-83961904D01*
X93640595Y-83961904D02*
X93640595Y-83542857D01*
X93678690Y-83466666D01*
X93754880Y-83428571D01*
X93907261Y-83428571D01*
X93983452Y-83466666D01*
X93640595Y-83923809D02*
X93716785Y-83961904D01*
X93907261Y-83961904D01*
X93983452Y-83923809D01*
X94021547Y-83847619D01*
X94021547Y-83771428D01*
X93983452Y-83695238D01*
X93907261Y-83657142D01*
X93716785Y-83657142D01*
X93640595Y-83619047D01*
X93259642Y-83428571D02*
X93259642Y-84228571D01*
X93259642Y-83466666D02*
X93183452Y-83428571D01*
X93031071Y-83428571D01*
X92954880Y-83466666D01*
X92916785Y-83504761D01*
X92878690Y-83580952D01*
X92878690Y-83809523D01*
X92916785Y-83885714D01*
X92954880Y-83923809D01*
X93031071Y-83961904D01*
X93183452Y-83961904D01*
X93259642Y-83923809D01*
X92192976Y-83961904D02*
X92192976Y-83542857D01*
X92231071Y-83466666D01*
X92307261Y-83428571D01*
X92459642Y-83428571D01*
X92535833Y-83466666D01*
X92192976Y-83923809D02*
X92269166Y-83961904D01*
X92459642Y-83961904D01*
X92535833Y-83923809D01*
X92573928Y-83847619D01*
X92573928Y-83771428D01*
X92535833Y-83695238D01*
X92459642Y-83657142D01*
X92269166Y-83657142D01*
X92192976Y-83619047D01*
X91812023Y-83961904D02*
X91812023Y-83428571D01*
X91812023Y-83580952D02*
X91773928Y-83504761D01*
X91735833Y-83466666D01*
X91659642Y-83428571D01*
X91583452Y-83428571D01*
X91431071Y-83428571D02*
X91126309Y-83428571D01*
X91316785Y-83161904D02*
X91316785Y-83847619D01*
X91278690Y-83923809D01*
X91202500Y-83961904D01*
X91126309Y-83961904D01*
D11*
%TO.C,R8*%
X94665800Y-87072000D02*
X94919800Y-87072000D01*
X94665800Y-87172000D02*
X94665800Y-87072000D01*
X94919800Y-87172000D02*
X94665800Y-87172000D01*
X94919800Y-87072000D02*
X94919800Y-87172000D01*
X95302800Y-87284779D02*
X95302800Y-86959221D01*
X94282800Y-87284779D02*
X94282800Y-86959221D01*
%TO.C,R6*%
X78600000Y-84612600D02*
X78600000Y-84866600D01*
X78500000Y-84612600D02*
X78600000Y-84612600D01*
X78500000Y-84866600D02*
X78500000Y-84612600D01*
X78600000Y-84866600D02*
X78500000Y-84866600D01*
X78387221Y-85249600D02*
X78712779Y-85249600D01*
X78387221Y-84229600D02*
X78712779Y-84229600D01*
%TO.C,R5*%
X81527000Y-87227101D02*
X81273000Y-87227101D01*
X81527000Y-87127101D02*
X81527000Y-87227101D01*
X81273000Y-87127101D02*
X81527000Y-87127101D01*
X81273000Y-87227101D02*
X81273000Y-87127101D01*
X80890000Y-87014322D02*
X80890000Y-87339880D01*
X81910000Y-87014322D02*
X81910000Y-87339880D01*
%TO.C,R4*%
X83127000Y-87239600D02*
X82873000Y-87239600D01*
X83127000Y-87139600D02*
X83127000Y-87239600D01*
X82873000Y-87139600D02*
X83127000Y-87139600D01*
X82873000Y-87239600D02*
X82873000Y-87139600D01*
X82490000Y-87026821D02*
X82490000Y-87352379D01*
X83510000Y-87026821D02*
X83510000Y-87352379D01*
%TO.C,R3*%
X81550000Y-81166600D02*
X81550000Y-80912600D01*
X81650000Y-81166600D02*
X81550000Y-81166600D01*
X81650000Y-80912600D02*
X81650000Y-81166600D01*
X81550000Y-80912600D02*
X81650000Y-80912600D01*
X81762779Y-80529600D02*
X81437221Y-80529600D01*
X81762779Y-81549600D02*
X81437221Y-81549600D01*
%TO.C,R1*%
X90855800Y-87172000D02*
X90601800Y-87172000D01*
X90855800Y-87072000D02*
X90855800Y-87172000D01*
X90601800Y-87072000D02*
X90855800Y-87072000D01*
X90601800Y-87172000D02*
X90601800Y-87072000D01*
X90218800Y-86959221D02*
X90218800Y-87284779D01*
X91238800Y-86959221D02*
X91238800Y-87284779D01*
%TO.C,Q2*%
X77929200Y-89006800D02*
X77929200Y-88076800D01*
X77929200Y-85846800D02*
X77929200Y-86776800D01*
X77929200Y-85846800D02*
X80089200Y-85846800D01*
X77929200Y-89006800D02*
X79389200Y-89006800D01*
%TO.C,F1*%
X73610000Y-83987536D02*
X73610000Y-85191664D01*
X71790000Y-83987536D02*
X71790000Y-85191664D01*
D12*
%TO.C,Q1*%
X80612132Y-82800000D02*
G75*
G03*
X80612132Y-82800000I-212132J0D01*
G01*
D10*
X77000000Y-82800000D02*
X77000000Y-81200000D01*
X79950000Y-81200000D02*
X79950000Y-82800000D01*
D11*
%TO.C,D2*%
X85400000Y-84889600D02*
X85400000Y-80989600D01*
X83400000Y-84889600D02*
X83400000Y-80989600D01*
X85400000Y-84889600D02*
X83400000Y-84889600D01*
%TO.C,C5*%
X74321078Y-90799600D02*
X73803922Y-90799600D01*
X74321078Y-89379600D02*
X73803922Y-89379600D01*
D13*
X74189500Y-90089600D02*
G75*
G03*
X74189500Y-90089600I-127000J0D01*
G01*
D11*
%TO.C,C3*%
X81910000Y-83531022D02*
X81910000Y-84048178D01*
X80490000Y-83531022D02*
X80490000Y-84048178D01*
D13*
X81327000Y-83789600D02*
G75*
G03*
X81327000Y-83789600I-127000J0D01*
G01*
D11*
%TO.C,C2*%
X88238400Y-86914222D02*
X88238400Y-87431378D01*
X86818400Y-86914222D02*
X86818400Y-87431378D01*
D13*
X87655400Y-87172800D02*
G75*
G03*
X87655400Y-87172800I-127000J0D01*
G01*
D11*
%TO.C,C1*%
X85647600Y-86914222D02*
X85647600Y-87431378D01*
X84227600Y-86914222D02*
X84227600Y-87431378D01*
D13*
X85064600Y-87172800D02*
G75*
G03*
X85064600Y-87172800I-127000J0D01*
G01*
%TD*%
M02*
