%TF.GenerationSoftware,KiCad,Pcbnew,5.1.7-a382d34a8~87~ubuntu18.04.1*%
%TF.CreationDate,2020-10-28T08:11:05+01:00*%
%TF.ProjectId,CH552_devkit,43483535-325f-4646-9576-6b69742e6b69,rev?*%
%TF.SameCoordinates,Original*%
%TF.FileFunction,Soldermask,Top*%
%TF.FilePolarity,Negative*%
%FSLAX46Y46*%
G04 Gerber Fmt 4.6, Leading zero omitted, Abs format (unit mm)*
G04 Created by KiCad (PCBNEW 5.1.7-a382d34a8~87~ubuntu18.04.1) date 2020-10-28 08:11:05*
%MOMM*%
%LPD*%
G01*
G04 APERTURE LIST*
%ADD10O,0.699440X1.649400*%
%ADD11O,1.800000X1.800000*%
%ADD12C,1.800000*%
%ADD13O,2.000000X1.300000*%
%ADD14C,1.550000*%
G04 APERTURE END LIST*
D10*
%TO.C,U1*%
X89382600Y-87330280D03*
X88112600Y-87330280D03*
X86842600Y-87330280D03*
X85572600Y-87330280D03*
X84302600Y-87330280D03*
X83032600Y-87330280D03*
X81762600Y-87330280D03*
X80492600Y-87330280D03*
X80492600Y-81935320D03*
X81762600Y-81935320D03*
X83032600Y-81935320D03*
X84302600Y-81935320D03*
X85572600Y-81935320D03*
X86842600Y-81935320D03*
X88112600Y-81935320D03*
G36*
G01*
X89082880Y-81110620D02*
X89682320Y-81110620D01*
G75*
G02*
X89732320Y-81160620I0J-50000D01*
G01*
X89732320Y-82710020D01*
G75*
G02*
X89682320Y-82760020I-50000J0D01*
G01*
X89082880Y-82760020D01*
G75*
G02*
X89032880Y-82710020I0J50000D01*
G01*
X89032880Y-81160620D01*
G75*
G02*
X89082880Y-81110620I50000J0D01*
G01*
G37*
%TD*%
%TO.C,D3*%
G36*
G01*
X97987500Y-90538000D02*
X97592500Y-90538000D01*
G75*
G02*
X97420000Y-90365500I0J172500D01*
G01*
X97420000Y-90020500D01*
G75*
G02*
X97592500Y-89848000I172500J0D01*
G01*
X97987500Y-89848000D01*
G75*
G02*
X98160000Y-90020500I0J-172500D01*
G01*
X98160000Y-90365500D01*
G75*
G02*
X97987500Y-90538000I-172500J0D01*
G01*
G37*
G36*
G01*
X97987500Y-91508000D02*
X97592500Y-91508000D01*
G75*
G02*
X97420000Y-91335500I0J172500D01*
G01*
X97420000Y-90990500D01*
G75*
G02*
X97592500Y-90818000I172500J0D01*
G01*
X97987500Y-90818000D01*
G75*
G02*
X98160000Y-90990500I0J-172500D01*
G01*
X98160000Y-91335500D01*
G75*
G02*
X97987500Y-91508000I-172500J0D01*
G01*
G37*
%TD*%
%TO.C,R7*%
G36*
G01*
X71425000Y-79444600D02*
X71425000Y-78134600D01*
G75*
G02*
X71695000Y-77864600I270000J0D01*
G01*
X72505000Y-77864600D01*
G75*
G02*
X72775000Y-78134600I0J-270000D01*
G01*
X72775000Y-79444600D01*
G75*
G02*
X72505000Y-79714600I-270000J0D01*
G01*
X71695000Y-79714600D01*
G75*
G02*
X71425000Y-79444600I0J270000D01*
G01*
G37*
G36*
G01*
X74225000Y-79444600D02*
X74225000Y-78134600D01*
G75*
G02*
X74495000Y-77864600I270000J0D01*
G01*
X75305000Y-77864600D01*
G75*
G02*
X75575000Y-78134600I0J-270000D01*
G01*
X75575000Y-79444600D01*
G75*
G02*
X75305000Y-79714600I-270000J0D01*
G01*
X74495000Y-79714600D01*
G75*
G02*
X74225000Y-79444600I0J270000D01*
G01*
G37*
%TD*%
%TO.C,R2*%
G36*
G01*
X76957000Y-88927250D02*
X76957000Y-88364750D01*
G75*
G02*
X77200750Y-88121000I243750J0D01*
G01*
X77688250Y-88121000D01*
G75*
G02*
X77932000Y-88364750I0J-243750D01*
G01*
X77932000Y-88927250D01*
G75*
G02*
X77688250Y-89171000I-243750J0D01*
G01*
X77200750Y-89171000D01*
G75*
G02*
X76957000Y-88927250I0J243750D01*
G01*
G37*
G36*
G01*
X78532000Y-88927250D02*
X78532000Y-88364750D01*
G75*
G02*
X78775750Y-88121000I243750J0D01*
G01*
X79263250Y-88121000D01*
G75*
G02*
X79507000Y-88364750I0J-243750D01*
G01*
X79507000Y-88927250D01*
G75*
G02*
X79263250Y-89171000I-243750J0D01*
G01*
X78775750Y-89171000D01*
G75*
G02*
X78532000Y-88927250I0J243750D01*
G01*
G37*
%TD*%
D11*
%TO.C,J2*%
X95280000Y-91000000D03*
X92740000Y-91000000D03*
X90200000Y-91000000D03*
X87660000Y-91000000D03*
X85120000Y-91000000D03*
X82580000Y-91000000D03*
X80040000Y-91000000D03*
D12*
X77500000Y-91000000D03*
%TD*%
D11*
%TO.C,J1*%
X77500000Y-78300000D03*
X80040000Y-78300000D03*
X82580000Y-78300000D03*
X85120000Y-78300000D03*
X87660000Y-78300000D03*
X90200000Y-78300000D03*
X92740000Y-78300000D03*
D12*
X95280000Y-78300000D03*
%TD*%
%TO.C,SW2*%
G36*
G01*
X96884400Y-82631600D02*
X96884400Y-83631600D01*
G75*
G02*
X96834400Y-83681600I-50000J0D01*
G01*
X95934400Y-83681600D01*
G75*
G02*
X95884400Y-83631600I0J50000D01*
G01*
X95884400Y-82631600D01*
G75*
G02*
X95934400Y-82581600I50000J0D01*
G01*
X96834400Y-82581600D01*
G75*
G02*
X96884400Y-82631600I0J-50000D01*
G01*
G37*
G36*
G01*
X96884400Y-81031600D02*
X96884400Y-82031600D01*
G75*
G02*
X96834400Y-82081600I-50000J0D01*
G01*
X95934400Y-82081600D01*
G75*
G02*
X95884400Y-82031600I0J50000D01*
G01*
X95884400Y-81031600D01*
G75*
G02*
X95934400Y-80981600I50000J0D01*
G01*
X96834400Y-80981600D01*
G75*
G02*
X96884400Y-81031600I0J-50000D01*
G01*
G37*
G36*
G01*
X92784400Y-82631600D02*
X92784400Y-83631600D01*
G75*
G02*
X92734400Y-83681600I-50000J0D01*
G01*
X91834400Y-83681600D01*
G75*
G02*
X91784400Y-83631600I0J50000D01*
G01*
X91784400Y-82631600D01*
G75*
G02*
X91834400Y-82581600I50000J0D01*
G01*
X92734400Y-82581600D01*
G75*
G02*
X92784400Y-82631600I0J-50000D01*
G01*
G37*
G36*
G01*
X92784400Y-81031600D02*
X92784400Y-82031600D01*
G75*
G02*
X92734400Y-82081600I-50000J0D01*
G01*
X91834400Y-82081600D01*
G75*
G02*
X91784400Y-82031600I0J50000D01*
G01*
X91784400Y-81031600D01*
G75*
G02*
X91834400Y-80981600I50000J0D01*
G01*
X92734400Y-80981600D01*
G75*
G02*
X92784400Y-81031600I0J-50000D01*
G01*
G37*
%TD*%
%TO.C,SW1*%
G36*
G01*
X91784400Y-86531600D02*
X91784400Y-85531600D01*
G75*
G02*
X91834400Y-85481600I50000J0D01*
G01*
X92734400Y-85481600D01*
G75*
G02*
X92784400Y-85531600I0J-50000D01*
G01*
X92784400Y-86531600D01*
G75*
G02*
X92734400Y-86581600I-50000J0D01*
G01*
X91834400Y-86581600D01*
G75*
G02*
X91784400Y-86531600I0J50000D01*
G01*
G37*
G36*
G01*
X91784400Y-88131600D02*
X91784400Y-87131600D01*
G75*
G02*
X91834400Y-87081600I50000J0D01*
G01*
X92734400Y-87081600D01*
G75*
G02*
X92784400Y-87131600I0J-50000D01*
G01*
X92784400Y-88131600D01*
G75*
G02*
X92734400Y-88181600I-50000J0D01*
G01*
X91834400Y-88181600D01*
G75*
G02*
X91784400Y-88131600I0J50000D01*
G01*
G37*
G36*
G01*
X95884400Y-86531600D02*
X95884400Y-85531600D01*
G75*
G02*
X95934400Y-85481600I50000J0D01*
G01*
X96834400Y-85481600D01*
G75*
G02*
X96884400Y-85531600I0J-50000D01*
G01*
X96884400Y-86531600D01*
G75*
G02*
X96834400Y-86581600I-50000J0D01*
G01*
X95934400Y-86581600D01*
G75*
G02*
X95884400Y-86531600I0J50000D01*
G01*
G37*
G36*
G01*
X95884400Y-88131600D02*
X95884400Y-87131600D01*
G75*
G02*
X95934400Y-87081600I50000J0D01*
G01*
X96834400Y-87081600D01*
G75*
G02*
X96884400Y-87131600I0J-50000D01*
G01*
X96884400Y-88131600D01*
G75*
G02*
X96834400Y-88181600I-50000J0D01*
G01*
X95934400Y-88181600D01*
G75*
G02*
X95884400Y-88131600I0J50000D01*
G01*
G37*
%TD*%
%TO.C,J3*%
G36*
G01*
X71350000Y-80939600D02*
X73250000Y-80939600D01*
G75*
G02*
X73300000Y-80989600I0J-50000D01*
G01*
X73300000Y-82189600D01*
G75*
G02*
X73250000Y-82239600I-50000J0D01*
G01*
X71350000Y-82239600D01*
G75*
G02*
X71300000Y-82189600I0J50000D01*
G01*
X71300000Y-80989600D01*
G75*
G02*
X71350000Y-80939600I50000J0D01*
G01*
G37*
G36*
G01*
X71350000Y-86739600D02*
X73250000Y-86739600D01*
G75*
G02*
X73300000Y-86789600I0J-50000D01*
G01*
X73300000Y-87989600D01*
G75*
G02*
X73250000Y-88039600I-50000J0D01*
G01*
X71350000Y-88039600D01*
G75*
G02*
X71300000Y-87989600I0J50000D01*
G01*
X71300000Y-86789600D01*
G75*
G02*
X71350000Y-86739600I50000J0D01*
G01*
G37*
D13*
X72300000Y-87989600D03*
X72300000Y-80989600D03*
G36*
G01*
X71350000Y-82689600D02*
X73250000Y-82689600D01*
G75*
G02*
X73300000Y-82739600I0J-50000D01*
G01*
X73300000Y-84239600D01*
G75*
G02*
X73250000Y-84289600I-50000J0D01*
G01*
X71350000Y-84289600D01*
G75*
G02*
X71300000Y-84239600I0J50000D01*
G01*
X71300000Y-82739600D01*
G75*
G02*
X71350000Y-82689600I50000J0D01*
G01*
G37*
D14*
X75000000Y-86989600D03*
G36*
G01*
X74325000Y-84239600D02*
X75675000Y-84239600D01*
G75*
G02*
X75725000Y-84289600I0J-50000D01*
G01*
X75725000Y-84689600D01*
G75*
G02*
X75675000Y-84739600I-50000J0D01*
G01*
X74325000Y-84739600D01*
G75*
G02*
X74275000Y-84689600I0J50000D01*
G01*
X74275000Y-84289600D01*
G75*
G02*
X74325000Y-84239600I50000J0D01*
G01*
G37*
G36*
G01*
X74325000Y-84889600D02*
X75675000Y-84889600D01*
G75*
G02*
X75725000Y-84939600I0J-50000D01*
G01*
X75725000Y-85339600D01*
G75*
G02*
X75675000Y-85389600I-50000J0D01*
G01*
X74325000Y-85389600D01*
G75*
G02*
X74275000Y-85339600I0J50000D01*
G01*
X74275000Y-84939600D01*
G75*
G02*
X74325000Y-84889600I50000J0D01*
G01*
G37*
G36*
G01*
X74325000Y-85539600D02*
X75675000Y-85539600D01*
G75*
G02*
X75725000Y-85589600I0J-50000D01*
G01*
X75725000Y-85989600D01*
G75*
G02*
X75675000Y-86039600I-50000J0D01*
G01*
X74325000Y-86039600D01*
G75*
G02*
X74275000Y-85989600I0J50000D01*
G01*
X74275000Y-85589600D01*
G75*
G02*
X74325000Y-85539600I50000J0D01*
G01*
G37*
G36*
G01*
X74325000Y-82939600D02*
X75675000Y-82939600D01*
G75*
G02*
X75725000Y-82989600I0J-50000D01*
G01*
X75725000Y-83389600D01*
G75*
G02*
X75675000Y-83439600I-50000J0D01*
G01*
X74325000Y-83439600D01*
G75*
G02*
X74275000Y-83389600I0J50000D01*
G01*
X74275000Y-82989600D01*
G75*
G02*
X74325000Y-82939600I50000J0D01*
G01*
G37*
G36*
G01*
X74325000Y-83589600D02*
X75675000Y-83589600D01*
G75*
G02*
X75725000Y-83639600I0J-50000D01*
G01*
X75725000Y-84039600D01*
G75*
G02*
X75675000Y-84089600I-50000J0D01*
G01*
X74325000Y-84089600D01*
G75*
G02*
X74275000Y-84039600I0J50000D01*
G01*
X74275000Y-83639600D01*
G75*
G02*
X74325000Y-83589600I50000J0D01*
G01*
G37*
X75000000Y-81989600D03*
G36*
G01*
X71350000Y-84689600D02*
X73250000Y-84689600D01*
G75*
G02*
X73300000Y-84739600I0J-50000D01*
G01*
X73300000Y-86239600D01*
G75*
G02*
X73250000Y-86289600I-50000J0D01*
G01*
X71350000Y-86289600D01*
G75*
G02*
X71300000Y-86239600I0J50000D01*
G01*
X71300000Y-84739600D01*
G75*
G02*
X71350000Y-84689600I50000J0D01*
G01*
G37*
%TD*%
%TO.C,D1*%
G36*
G01*
X78219600Y-87116300D02*
X78219600Y-86721300D01*
G75*
G02*
X78392100Y-86548800I172500J0D01*
G01*
X78737100Y-86548800D01*
G75*
G02*
X78909600Y-86721300I0J-172500D01*
G01*
X78909600Y-87116300D01*
G75*
G02*
X78737100Y-87288800I-172500J0D01*
G01*
X78392100Y-87288800D01*
G75*
G02*
X78219600Y-87116300I0J172500D01*
G01*
G37*
G36*
G01*
X77249600Y-87116300D02*
X77249600Y-86721300D01*
G75*
G02*
X77422100Y-86548800I172500J0D01*
G01*
X77767100Y-86548800D01*
G75*
G02*
X77939600Y-86721300I0J-172500D01*
G01*
X77939600Y-87116300D01*
G75*
G02*
X77767100Y-87288800I-172500J0D01*
G01*
X77422100Y-87288800D01*
G75*
G02*
X77249600Y-87116300I0J172500D01*
G01*
G37*
%TD*%
%TO.C,C4*%
G36*
G01*
X71775000Y-90570850D02*
X71775000Y-89608350D01*
G75*
G02*
X72043750Y-89339600I268750J0D01*
G01*
X72581250Y-89339600D01*
G75*
G02*
X72850000Y-89608350I0J-268750D01*
G01*
X72850000Y-90570850D01*
G75*
G02*
X72581250Y-90839600I-268750J0D01*
G01*
X72043750Y-90839600D01*
G75*
G02*
X71775000Y-90570850I0J268750D01*
G01*
G37*
G36*
G01*
X73650000Y-90570850D02*
X73650000Y-89608350D01*
G75*
G02*
X73918750Y-89339600I268750J0D01*
G01*
X74456250Y-89339600D01*
G75*
G02*
X74725000Y-89608350I0J-268750D01*
G01*
X74725000Y-90570850D01*
G75*
G02*
X74456250Y-90839600I-268750J0D01*
G01*
X73918750Y-90839600D01*
G75*
G02*
X73650000Y-90570850I0J268750D01*
G01*
G37*
%TD*%
M02*
