M48
; DRILL file {KiCad 5.1.7-a382d34a8~87~ubuntu18.04.1} date Wed Oct 28 08:11:00 2020
; FORMAT={-:-/ absolute / inch / decimal}
; #@! TF.CreationDate,2020-10-28T08:11:00+01:00
; #@! TF.GenerationSoftware,Kicad,Pcbnew,5.1.7-a382d34a8~87~ubuntu18.04.1
; #@! TF.FileFunction,Plated,1,2,PTH
FMAT,2
INCH
T1C0.0118
T2C0.0236
T3C0.0335
T4C0.0394
%
G90
G05
T1
X2.8346Y-3.6024
X2.8937Y-3.6024
X2.9175Y-3.1765
X2.9528Y-3.6024
X2.9845Y-3.1765
X2.9935Y-3.262
X3.004Y-3.3508
X3.008Y-3.2
X3.0233Y-3.3213
X3.0535Y-3.3835
X3.2624Y-3.3442
X3.292Y-3.268
X3.2921Y-3.362
X3.394Y-3.272
X3.3945Y-3.3913
X3.396Y-3.4792
X3.422Y-3.31
X3.458Y-3.31
X3.4912Y-3.3923
X3.494Y-3.31
X3.5269Y-3.381
X3.53Y-3.31
X3.5551Y-3.502
X3.576Y-3.196
X3.578Y-3.24
X3.592Y-3.3566
X3.6004Y-3.5453
X3.6043Y-3.502
X3.6417Y-3.3268
X3.6779Y-3.4501
X3.6881Y-3.2099
X3.7008Y-3.3268
X3.7008Y-3.5433
X3.7401Y-3.2099
X3.7598Y-3.3268
X3.814Y-3.548
X3.8189Y-3.3268
T3
X2.9528Y-3.2279
X2.9528Y-3.4248
T4
X3.0512Y-3.5827
X3.1512Y-3.5827
X3.2512Y-3.5827
X3.3512Y-3.5827
X3.4512Y-3.5827
X3.5512Y-3.5827
X3.6512Y-3.5827
X3.7512Y-3.5827
X3.0512Y-3.0827
X3.1512Y-3.0827
X3.2512Y-3.0827
X3.3512Y-3.0827
X3.4512Y-3.0827
X3.5512Y-3.0827
X3.6512Y-3.0827
X3.7512Y-3.0827
T2
G00X2.8327Y-3.1886
M15
G01X2.8602Y-3.1886
M16
G05
G00X2.8602Y-3.4642
M15
G01X2.8327Y-3.4642
M16
G05
T0
M30
